<?xml version="1.0" standalone="no"?>
<!DOCTYPE svg PUBLIC "-//W3C//DTD SVG 20010904//EN"
 "http://www.w3.org/TR/2001/REC-SVG-20010904/DTD/svg10.dtd">
<svg version="1.0" xmlns="http://www.w3.org/2000/svg"
 width="512.000000pt" height="512.000000pt" viewBox="0 0 512.000000 512.000000"
 preserveAspectRatio="xMidYMid meet">

<g transform="translate(0.000000,512.000000) scale(0.100000,-0.100000)"
fill="#000000" stroke="none">
<path d="M4343 4706 c-144 -47 -247 -167 -273 -316 -10 -58 -8 -84 20 -245 17
-99 37 -201 46 -227 29 -90 146 -188 226 -188 41 0 41 -13 -3 -56 -92 -90
-137 -197 -146 -347 l-6 -99 -46 7 c-85 13 -373 17 -385 5 -6 -6 -55 -10 -116
-10 -94 0 -112 -3 -158 -26 -88 -44 -151 -136 -152 -221 0 -34 -4 -43 -17 -43
-51 1 -525 38 -528 41 -4 5 -93 395 -98 427 -3 27 456 425 532 461 46 21 71
26 136 26 89 0 155 -24 229 -84 67 -54 82 -48 219 87 124 122 141 147 131 189
-9 34 -120 123 -214 172 -124 65 -212 85 -365 85 -146 0 -213 -14 -331 -69
-88 -40 -123 -64 -224 -150 -82 -70 -102 -105 -81 -143 9 -17 1 -29 -65 -88
-66 -59 -78 -66 -95 -56 -51 32 -56 29 -497 -354 -231 -201 -424 -365 -428
-365 -3 0 -85 186 -181 413 -111 261 -191 438 -219 480 -67 100 -170 190 -278
243 -159 78 -172 80 -579 80 l-359 0 -19 -24 c-19 -23 -19 -61 -19 -1558 l0
-1534 25 -24 24 -25 333 0 c362 0 369 1 382 55 6 25 8 25 102 25 81 0 96 -2
101 -17 3 -10 15 -28 26 -41 19 -20 29 -22 127 -22 l107 0 6 -64 c25 -267 191
-507 432 -625 107 -53 179 -71 305 -78 377 -21 705 222 800 591 11 44 20 101
20 128 l0 48 125 0 125 0 0 -30 c0 -19 9 -40 25 -55 l24 -25 451 0 451 0 24
25 25 24 0 256 0 256 -25 24 c-13 14 -31 25 -40 25 -13 0 -15 46 -15 404 0
232 -4 426 -10 457 -13 69 -58 165 -100 212 l-32 37 196 0 196 0 0 -237 c0
-267 10 -338 61 -441 39 -80 123 -171 216 -233 l73 -50 0 -243 c0 -230 -1
-244 -20 -261 -18 -17 -20 -31 -20 -185 0 -154 2 -168 20 -185 25 -22 27 -87
4 -106 -8 -7 -58 -18 -110 -25 -162 -21 -204 -68 -204 -229 0 -107 12 -140 60
-169 25 -14 74 -16 408 -16 l381 0 20 26 c21 27 21 29 21 1093 -1 1149 2 1089
-53 1110 -27 10 -27 12 -27 106 l0 96 29 10 c51 18 53 28 49 380 l-3 324 -32
68 c-20 42 -52 87 -84 118 l-51 50 -46 260 c-34 195 -43 262 -34 268 6 4 46
13 88 20 87 15 114 34 114 84 0 34 -18 58 -52 70 -10 3 -52 0 -94 -8 -41 -8
-81 -15 -87 -15 -7 0 -25 25 -40 55 -36 68 -111 139 -184 172 -68 32 -203 41
-270 19z m213 -162 c37 -18 87 -63 104 -93 8 -16 -11 -21 -210 -56 -121 -21
-223 -36 -226 -32 -13 13 29 100 67 138 66 66 178 84 265 43z m154 -274 c0 -6
18 -112 40 -235 22 -123 40 -229 40 -235 0 -6 -36 -10 -93 -10 l-93 0 -11 30
c-6 16 -26 38 -44 49 -28 17 -44 19 -108 15 -65 -5 -81 -3 -109 16 -42 26 -56
59 -79 192 l-19 108 30 5 c17 3 114 21 216 39 206 38 230 40 230 26z m-3926
-106 c137 -35 265 -125 340 -239 20 -30 125 -263 232 -517 107 -255 203 -471
213 -482 17 -16 105 -24 917 -82 495 -35 916 -64 936 -64 36 0 37 -1 47 -50 6
-28 11 -93 11 -145 l0 -94 -264 -3 c-243 -3 -266 -5 -285 -22 -20 -18 -21 -29
-21 -166 0 -172 11 -216 72 -285 22 -25 64 -58 92 -72 45 -24 67 -28 176 -32
l125 -6 -49 -34 c-95 -66 -128 -71 -495 -71 l-328 0 -67 44 c-199 131 -462
161 -691 79 -67 -24 -199 -96 -211 -114 -3 -5 -311 -9 -695 -9 l-689 0 0 555
0 555 569 0 570 0 20 26 c19 24 21 40 21 144 0 190 -43 267 -173 311 l-50 17
-57 133 c-31 74 -67 154 -79 178 -31 60 -116 143 -179 175 -97 49 -147 56
-404 56 l-238 0 0 115 0 115 286 0 c228 0 299 -3 348 -16z m-111 -388 c55 -20
111 -62 142 -106 14 -21 48 -89 74 -151 l49 -114 -34 -7 c-147 -32 -239 -190
-188 -322 6 -14 -23 -16 -280 -16 l-286 0 0 365 0 365 243 0 c177 -1 252 -4
280 -14z m3967 -431 c0 -285 0 -286 -25 -335 -14 -27 -34 -54 -44 -60 -12 -6
-101 -10 -220 -10 l-201 0 0 70 0 70 150 0 c91 0 159 4 174 12 31 14 126 191
126 235 0 39 -33 73 -71 73 -47 0 -62 -13 -99 -89 -48 -101 -64 -95 -58 22 3
71 10 102 28 137 56 109 117 160 192 160 l48 0 0 -285z m-2029 -196 l36 -161
-71 6 c-39 3 -123 8 -186 12 -63 4 -123 10 -132 13 -12 4 23 41 145 148 89 78
164 142 167 142 3 1 21 -72 41 -160z m-1561 91 c0 -6 -7 -26 -15 -45 -17 -42
-46 -55 -121 -55 -49 0 -54 2 -54 23 1 28 28 63 60 76 34 13 130 14 130 1z
m2950 -225 l0 -85 -50 0 -50 0 0 85 0 85 50 0 50 0 0 -85z m-260 -10 l0 -75
-120 0 -120 0 0 30 c0 42 25 86 58 104 17 10 56 15 105 16 l77 0 0 -75z m900
-631 l0 -425 -76 53 c-88 60 -146 131 -174 212 -18 50 -20 83 -20 311 l0 255
103 1 c56 0 111 4 122 9 47 20 45 34 45 -416z m-1340 -180 l0 -137 -67 7
c-121 13 -164 59 -171 187 l-5 79 122 0 121 0 0 -136z m510 1 l0 -135 -180 0
-180 0 0 135 0 135 180 0 180 0 0 -135z m-1671 -398 c52 -12 55 -14 87 -72 42
-75 71 -162 82 -242 l9 -62 -44 40 c-189 174 -495 116 -609 -116 -26 -54 -29
-70 -29 -160 0 -91 3 -106 31 -165 54 -114 151 -188 278 -214 l60 -13 -45 -26
c-68 -40 -185 -77 -262 -84 l-69 -6 -67 69 c-72 75 -128 172 -157 269 -25 82
-25 248 0 329 67 224 254 404 468 451 76 16 194 17 267 2z m1751 -432 l0 -155
-350 0 -350 0 0 155 0 155 350 0 350 0 0 -155z m-1806 33 c24 -8 59 -31 87
-58 76 -76 90 -181 34 -275 -74 -127 -249 -149 -354 -44 -111 111 -82 291 58
362 60 30 110 34 175 15z m2886 -268 l0 -60 -150 0 -150 0 0 60 0 60 150 0
150 0 0 -60z m0 -395 l0 -185 -295 0 -295 0 0 49 c0 57 -1 56 105 67 39 3 87
13 108 21 70 28 127 121 127 207 l0 26 125 0 125 0 0 -185z"/>
</g>
</svg>
